# xmcd CD database file
#
# Track frame offsets:
#	183
#	13800
#	29775
#	42375
#	54435
#	66828
#	78980
#	90623
#	102780
#	116173
#	129493
#	141693
#	153848
#	166158
#	178515
#	192313
#	202848
#	214068
#	226865
#	239045
#	250815
#
# Disc length: 3508 seconds
#
# Revision: 2
# Processed by: cddbd v1.4PL0 Copyright (c) Steve Scherf et al.
# Submitted via: CDex 1.50
#
DISCID=280db215
DTITLE=Various Artist - Barrelhouse Boogie
DYEAR=1900
DGENRE=Blues
TTITLE0=Meade Lux Lewis/Honky Tonk Train Blues
TTITLE1=Meade Lux Lewis/Whistlin' Blues
TTITLE2=Jimmy Yancey/Yancey Stomp
TTITLE3=Jimmy Yancey/State Street Special
TTITLE4=Jimmy Yancey/Tell 'em About Me
TTITLE5=Jimmy Yancey/Five O'Clock Blues
TTITLE6=Jimmy Yancey/Slow and Easy Blues
TTITLE7=Jimmy Yancey/The Mellow Blues
TTITLE8=Jimmy Yancey/Crying In My Sleep
TTITLE9=Jimmy Yancey/Death Letter Blues
TTITLE10=Jimmy Yancey/Yancey's Bugle Call
TTITLE11=Jimmy Yancey/35th and Dearborn
TTITLE12=Pete Johnson and Albert Ammons/Boogie Woogie Man
TTITLE13=Pete Johnson and Albert Ammons/Boogie Woogie Jump
TTITLE14=Pete Johnson and Albert Ammons/Barrelhouse Boogie
TTITLE15=Pete Johnson and Albert Ammons/Cuttin' The Boogie
TTITLE16=Pete Johnson and Albert Ammons/Foot Pedal Boogie
TTITLE17=Pete Johnson and Albert Ammons/Walkin' The Boogie
TTITLE18=Pete Johnson and Albert Ammons/Sixth Avenue Express
TTITLE19=Pete Johnson and Albert Ammons/Pine Creek
TTITLE20=Pete Johnson and Albert Ammons/Movin' The Boogie
EXTD=
EXTT0=
EXTT1=
EXTT2=
EXTT3=
EXTT4=
EXTT5=
EXTT6=
EXTT7=
EXTT8=
EXTT9=
EXTT10=
EXTT11=
EXTT12=
EXTT13=
EXTT14=
EXTT15=
EXTT16=
EXTT17=
EXTT18=
EXTT19=
EXTT20=
PLAYORDER=
